#!OML:ASF F:\VICON\USERDATA\INSTALL\rory3\rory3.ASF
:FULLY-SPECIFIED
:DEGREES
1
root 0 0 0 0 0 0
lowerback 0 0 0
upperback 0 0 0
thorax 0 0 0
lowerneck 0 0 0
upperneck 0 0 0
head 0 0 0
rclavicle 0 0
rhumerus 0 0 0
rradius 0
rwrist 0
rhand 0 0
rfingers 0
rthumb 0 0
lclavicle 0 0
lhumerus 0 0 0
lradius 0
lwrist 0
lhand 0 0
lfingers 0
lthumb 0 0
rfemur 0 0 0
rtibia 0
rfoot 0 0
rtoes 0
lfemur 0 0 0
ltibia 0
lfoot 0 0
ltoes 0
2
root 0 0 0 0 0 0
lowerback 0 0 0
upperback 0 0 0
thorax 0 0 0
lowerneck 0 0 0
upperneck 0 0 0
head 0 0 0
rclavicle 0 0
rhumerus 0 0 0
rradius 0
rwrist 0
rhand 0 0
rfingers 0
rthumb 0 0
lclavicle 0 0
lhumerus 0 0 0
lradius 0
lwrist 0
lhand 0 0
lfingers 0
lthumb 0 0
rfemur 0 0 0
rtibia 0
rfoot 0 0
rtoes 0
lfemur 0 0 0
ltibia 0
lfoot 0 0
ltoes 0
3
root 0 0 0 0 0 0
lowerback 0 0 0
upperback 0 0 0
thorax 0 0 0
lowerneck 0 0 0
upperneck 0 0 0
head 0 0 0
rclavicle 0 0
rhumerus 0 0 0
rradius 0
rwrist 0
rhand 0 0
rfingers 0
rthumb 0 0
lclavicle 0 0
lhumerus 0 0 0
lradius 0
lwrist 0
lhand 0 0
lfingers 0
lthumb 0 0
rfemur 0 0 0
rtibia 0
rfoot 0 0
rtoes 0
lfemur 0 0 0
ltibia 0
lfoot 0 0
ltoes 0
4
root 0 0 0 0 0 0
lowerback 0 0 0
upperback 0 0 0
thorax 0 0 0
lowerneck 0 0 0
upperneck 0 0 0
head 0 0 0
rclavicle 0 0
rhumerus 0 0 0
rradius 0
rwrist 0
rhand 0 0
rfingers 0
rthumb 0 0
lclavicle 0 0
lhumerus 0 0 0
lradius 0
lwrist 0
lhand 0 0
lfingers 0
lthumb 0 0
rfemur 0 0 0
rtibia 0
rfoot 0 0
rtoes 0
lfemur 0 0 0
ltibia 0
lfoot 0 0
ltoes 0
5
root 0.592531 18.635 -28.497 7.1549 -1.72792 2.92512
lowerback 15.3177 -3.92797 -5.02743
upperback 0.299222 -6.11441 -0.362336
thorax -7.76774 -2.77525 3.74297
lowerneck -6.96407 2.07237 -1.45431
upperneck -6.33982 2.80529 -0.876517
head -0.807035 1.42957 0.00459226
rclavicle -8.3092e-014 -9.93923e-015
rhumerus -61.8939 7.59162 -81.561
rradius 75.1586
rwrist -8.83364
rhand -38.4566 29.3196
rfingers 7.12502
rthumb -11.4796 -0.346118
lclavicle -8.3092e-014 -9.93923e-015
lhumerus -19.9863 -15.8441 89.0232
lradius 118.022
lwrist 30.1657
lhand -33.4 5.4404
lfingers 7.12502
lthumb -6.60038 35.3175
rfemur -44.9109 3.64883 16.1813
rtibia 51.6372
rfoot 4.2437 1.91024
rtoes -0.730743
lfemur 31.2484 -6.13155 -30.4137
ltibia 2.8625e-014
lfoot 44.55 10.0365
ltoes 14.4232
6
root 0.597647 18.6808 -27.9315 7.15116 -1.79634 3.32066
lowerback 15.5359 -3.90867 -5.08586
upperback 0.221062 -6.13091 -0.543086
thorax -7.98826 -2.77292 3.61053
lowerneck -7.25859 2.05769 -0.910451
upperneck -6.51458 2.7451 -1.08858
head -0.802682 1.3884 -0.145791
rclavicle 1.5207e-014 2.34566e-014
rhumerus -61.6911 6.86778 -81.3339
rradius 75.595
rwrist -8.33031
rhand -39.9604 24.0138
rfingers 7.12502
rthumb -12.9296 -5.56563
lclavicle 1.5207e-014 2.34566e-014
lhumerus -20.8407 -17.1883 89.0912
lradius 118.305
lwrist 29.4217
lhand -32.8309 5.99575
lfingers 7.12502
lthumb -6.05098 35.8893
rfemur -43.9302 4.19667 15.5431
rtibia 46.0249
rfoot 4.99088 0.36172
rtoes -4.83529
lfemur 31.1376 -6.00745 -31.0069
ltibia 3.02087
lfoot 38.8869 7.25524
ltoes -4.11119
7
root 0.60116 18.7379 -27.374 7.12284 -1.91112 3.63244
lowerback 15.9459 -3.94103 -5.17107
upperback -0.0258177 -6.22917 -0.575991
thorax -8.47402 -2.79112 3.69363
lowerneck -7.22943 2.10081 -1.0544
upperneck -6.68455 2.81658 -0.869996
head -0.864985 1.42725 -0.0572315
rclavicle -6.88789e-014 2.0276e-014
rhumerus -61.6624 6.63798 -81.1053
rradius 76.1204
rwrist -7.73611
rhand -39.1702 23.5375
rfingers 7.12502
rthumb -12.1678 -6.08863
lclavicle -6.88789e-014 2.0276e-014
lhumerus -22.0951 -18.1838 89.4115
lradius 118.468
lwrist 29.0875
lhand -32.7142 5.81683
lfingers 7.12502
lthumb -5.93826 35.7136
rfemur -42.7265 5.30884 14.6471
rtibia 41.1286
rfoot 5.15347 -2.2887
rtoes -6.40429
lfemur 29.2952 -5.8238 -31.5072
ltibia 9.34706
lfoot 35.5375 4.98421
ltoes -10.2759
